HIERARCHY
ROOT Hips
{
	OFFSET -0.001795 -0.223333 0.028219
	CHANNELS 6 Xposition Yposition Zposition Zrotation Yrotation Xrotation
	JOINT LeftUpLeg
	{
		OFFSET 0.069520 -0.091406 -0.006815
		CHANNELS 3 Zrotation Yrotation Xrotation
		JOINT LeftLeg
		{
			OFFSET 0.034277 -0.375199 -0.004496
			CHANNELS 3 Zrotation Yrotation Xrotation
			JOINT LeftFoot
			{
				OFFSET -0.013596 -0.397961 -0.043693
				CHANNELS 3 Zrotation Yrotation Xrotation
				JOINT LeftToe
				{
					OFFSET 0.026358 -0.055791 0.119288
					CHANNELS 3 Zrotation Yrotation Xrotation
					End Site
					{
						OFFSET 0.000000 0.000000 0.000000
					}
				}
			}
		}
	}
	JOINT RightUpLeg
	{
		OFFSET -0.067670 -0.090522 -0.004320
		CHANNELS 3 Zrotation Yrotation Xrotation
		JOINT RightLeg
		{
			OFFSET -0.038290 -0.382569 -0.008850
			CHANNELS 3 Zrotation Yrotation Xrotation
			JOINT RightFoot
			{
				OFFSET 0.015774 -0.398415 -0.042312
				CHANNELS 3 Zrotation Yrotation Xrotation
				JOINT RightToe
				{
					OFFSET -0.025372 -0.048144 0.123348
					CHANNELS 3 Zrotation Yrotation Xrotation
					End Site
					{
						OFFSET 0.000000 0.000000 0.000000
					}
				}
			}
		}
	}
	JOINT Spine
	{
		OFFSET -0.002533 0.108963 -0.026696
		CHANNELS 3 Zrotation Yrotation Xrotation
		JOINT Spine1
		{
			OFFSET 0.005487 0.135180 0.001092
			CHANNELS 3 Zrotation Yrotation Xrotation
			JOINT Spine2
			{
				OFFSET 0.001457 0.052922 0.025425
				CHANNELS 3 Zrotation Yrotation Xrotation
				JOINT Neck
				{
					OFFSET -0.002778 0.213870 -0.042857
					CHANNELS 3 Zrotation Yrotation Xrotation
					JOINT Head
					{
						OFFSET 0.005152 0.064970 0.051349
						CHANNELS 3 Zrotation Yrotation Xrotation
						End Site
						{
							OFFSET 0.000000 0.000000 0.000000
						}
					}
				}
				JOINT LeftShoulder
				{
					OFFSET 0.078845 0.121749 -0.034090
					CHANNELS 3 Zrotation Yrotation Xrotation
					JOINT LeftArm
					{
						OFFSET 0.090977 0.030469 -0.008868
						CHANNELS 3 Zrotation Yrotation Xrotation
						JOINT LeftForeArm
						{
							OFFSET 0.259612 -0.012772 -0.027456
							CHANNELS 3 Zrotation Yrotation Xrotation
							JOINT LeftHand
							{
								OFFSET 0.249234 0.008986 -0.001171
								CHANNELS 3 Zrotation Yrotation Xrotation
								End Site
								{
									OFFSET 0.000000 0.000000 0.000000
								}
							}
						}
					}
				}
				JOINT RightShoulder
				{
					OFFSET -0.081759 0.118833 -0.038615
					CHANNELS 3 Zrotation Yrotation Xrotation
					JOINT RightArm
					{
						OFFSET -0.096012 0.032551 -0.009143
						CHANNELS 3 Zrotation Yrotation Xrotation
						JOINT RightForeArm
						{
							OFFSET -0.253742 -0.013329 -0.021401
							CHANNELS 3 Zrotation Yrotation Xrotation
							JOINT RightHand
							{
								OFFSET -0.255298 0.007772 -0.005559
								CHANNELS 3 Zrotation Yrotation Xrotation
								End Site
								{
									OFFSET 0.000000 0.000000 0.000000
								}
							}
						}
					}
				}
			}
		}
	}
}
MOTION
Frames: 11
Frame Time: 0.050000
0.991323 0.308525 0.048837 -23.374973 -10.652463 -33.526350 35.858568 -33.842051 107.657600 -31.413779 13.685199 47.445444 23.968470 -19.344630 -91.997410 0.000000 0.000000 0.000000 -22.352651 -5.722275 -68.364616 84.715757 -51.229794 49.351140 9.156878 -54.322727 -88.008675 0.000000 0.000000 0.000000 -35.324220 13.135550 66.763135 -94.489862 -78.608980 -130.802518 -128.639731 -9.200060 -111.576663 -99.103870 -22.053895 38.974333 0.000000 0.000000 0.000000 -3.440433 -51.912771 -8.120372 -12.847886 -16.390260 2.585459 44.458803 -37.233953 -40.755160 0.000000 0.000000 0.000000 20.205744 8.025022 102.979514 -53.993461 30.230227 -23.561803 -49.627127 -24.284794 1.242802 0.000000 0.000000 0.000000
1.019946 0.307170 0.033743 -27.554750 -9.751135 -29.598459 23.984397 -25.637499 123.109264 -19.333019 5.268238 27.112712 13.507559 3.299508 -72.002649 0.000000 0.000000 0.000000 -33.542162 -12.285651 -61.429429 97.052272 -43.140946 31.792305 8.564124 -52.578397 -89.598816 0.000000 0.000000 0.000000 -46.383508 24.389129 73.041051 -66.204631 -75.571821 -156.172916 -138.885413 -4.395478 -127.052110 -154.688702 -20.364375 53.041005 0.000000 0.000000 0.000000 6.536642 -55.221015 -37.853524 -12.022626 2.394853 2.456579 18.935655 -54.345949 -37.243231 0.000000 0.000000 0.000000 7.622385 10.266198 141.757609 -68.066216 1.679452 -11.406405 -32.960815 -55.181494 1.380234 0.000000 0.000000 0.000000
1.051570 0.321196 0.003619 -34.988154 -13.607250 -22.130004 22.813789 -18.784626 123.494459 -19.631343 4.754126 23.247359 9.808637 12.079149 -47.077950 0.000000 0.000000 0.000000 -33.902502 -9.619159 -57.897778 95.610416 -32.224789 22.181034 3.326808 -47.260423 -83.178832 0.000000 0.000000 0.000000 -56.173363 38.039262 76.135345 -63.289653 -80.248140 -163.028831 -157.100712 3.005405 -142.278435 170.899180 -13.847676 42.572464 0.000000 0.000000 0.000000 16.566854 -57.072160 -59.327830 -7.981669 19.571676 2.798998 -16.203012 -61.535886 -21.158521 0.000000 0.000000 0.000000 14.784353 15.539912 162.594359 -60.098466 -11.366841 -8.146821 -26.464120 -66.793889 -9.485021 0.000000 0.000000 0.000000
1.088068 0.342641 -0.034960 -41.570725 -8.276218 -9.159708 30.301787 -29.021244 113.673626 -27.314410 8.490228 24.392628 11.039240 9.966948 -63.829332 0.000000 0.000000 0.000000 -34.947243 -8.410942 -47.409581 93.876346 -26.021126 13.541877 -0.580306 -37.254616 -87.856363 0.000000 0.000000 0.000000 -57.888601 44.984184 79.119653 169.927044 -68.043190 -45.686259 178.891833 25.179705 -145.917136 -98.309662 34.431924 36.696957 0.000000 0.000000 0.000000 0.852150 -55.470896 -41.222739 -4.764015 14.583724 5.034498 -0.475628 -82.322956 -26.570360 0.000000 0.000000 0.000000 54.330786 7.122471 88.525572 -46.429895 16.438806 -14.273944 -71.019383 9.034724 -39.176555 0.000000 0.000000 0.000000
1.128829 0.358897 -0.077611 -42.152895 7.699034 24.977592 43.182672 -33.372955 75.779804 -43.387148 22.407131 30.586515 13.049701 6.822546 -81.208453 0.000000 0.000000 0.000000 -42.952507 -14.583503 -52.033823 57.217794 -49.361411 70.295448 -6.007315 -23.798340 -88.807284 0.000000 0.000000 0.000000 -37.293598 33.365893 92.015625 143.346452 7.865889 -43.713552 113.892762 62.059074 157.711558 -49.432126 31.479550 73.090781 0.000000 0.000000 0.000000 -8.028077 -38.387642 -3.355361 -18.376854 -12.589713 5.321677 112.726511 -63.618923 -123.739569 0.000000 0.000000 0.000000 60.118938 9.189171 58.068983 -44.520376 25.837445 -13.279628 -83.101394 36.096880 -58.043975 0.000000 0.000000 0.000000
1.172139 0.370023 -0.126113 -26.939835 15.001348 52.075282 65.391959 -31.994422 32.530150 -33.441187 41.225913 69.139668 17.913015 3.180580 -90.351666 0.000000 0.000000 0.000000 -58.167227 -22.220349 -47.775420 -23.768680 23.302953 102.296332 -20.074368 6.715632 -85.354118 0.000000 0.000000 0.000000 -25.497437 17.278388 83.721214 101.524308 40.289721 -67.441367 37.304469 64.918792 97.172240 -28.214184 16.703960 93.199046 0.000000 0.000000 0.000000 -9.775077 -24.081941 -1.908586 -25.214012 -35.884382 3.137149 146.764749 -68.805226 -162.692797 0.000000 0.000000 0.000000 56.710744 9.974313 41.416536 -56.314664 26.356244 -13.253673 -93.245071 29.073772 -54.497610 0.000000 0.000000 0.000000
1.215218 0.374339 -0.181787 -12.470317 13.192204 65.895034 78.900098 -19.854519 2.622118 -0.208921 26.588548 115.237036 28.156498 -4.123493 -97.276497 0.000000 0.000000 0.000000 -74.089518 -19.453613 -34.538233 -34.937065 26.391708 92.820065 -26.689014 22.891470 -82.831461 0.000000 0.000000 0.000000 -14.530834 5.496048 73.866794 42.959773 24.263075 -88.158973 3.410640 41.484487 58.818121 -19.018643 -24.376410 81.551836 0.000000 0.000000 0.000000 -16.487126 -22.339822 -0.646394 -31.216508 -38.382633 3.253355 -166.222572 -71.189037 151.760581 0.000000 0.000000 0.000000 49.740951 8.911887 32.281548 -56.827673 28.191192 -15.484465 -99.877204 27.660847 -40.790823 0.000000 0.000000 0.000000
1.255229 0.376068 -0.237865 -8.176013 9.883612 73.024572 78.388362 -10.055892 -9.796391 7.773587 9.895927 128.575917 135.487994 -50.692673 -113.453515 0.000000 0.000000 0.000000 -75.160188 -14.219625 -31.057909 -42.151267 27.418235 84.036291 -27.670030 42.060303 -68.427004 0.000000 0.000000 0.000000 -8.477432 1.453549 59.452741 22.095713 7.599437 -67.531801 -4.876747 28.161102 36.963522 38.224962 -41.809858 7.446610 0.000000 0.000000 0.000000 -8.482958 -21.310330 3.610927 -43.134379 -39.247931 5.869746 -149.352881 -66.689222 135.127731 0.000000 0.000000 0.000000 40.638424 8.089359 25.742652 -45.347977 32.133097 -15.236380 -110.833527 29.585276 -32.875691 0.000000 0.000000 0.000000
1.291167 0.377672 -0.286178 -6.528224 7.915936 72.591254 77.545608 -2.645500 -14.952156 9.019705 3.436581 131.140895 -37.335567 -34.454560 46.188363 0.000000 0.000000 0.000000 -77.152625 -16.775270 -34.563877 -48.015244 31.418818 78.092525 9.524863 69.356794 -9.312982 0.000000 0.000000 0.000000 -5.893708 0.173220 57.356400 9.795806 2.478412 -53.344224 -4.648934 18.084280 27.194620 41.669546 -10.355470 -32.353503 0.000000 0.000000 0.000000 1.316831 -15.445598 4.606424 -55.445996 -42.537707 11.155223 -150.495139 -66.379809 143.653492 0.000000 0.000000 0.000000 25.308453 5.529090 12.523937 -26.944278 43.609989 -14.762660 -111.605909 32.937942 -24.382093 0.000000 0.000000 0.000000
1.323954 0.378007 -0.322320 -6.791182 8.960404 72.264307 70.085071 3.676560 -25.518677 4.176638 15.016279 129.591418 -18.669201 -25.179383 16.077373 0.000000 0.000000 0.000000 -65.549368 -17.467650 -42.966326 -53.363537 37.904199 77.247125 40.231828 59.681335 30.575720 0.000000 0.000000 0.000000 -4.633457 -1.031553 55.493921 9.621554 2.176805 -50.796020 -5.518134 17.592028 24.859501 33.916318 -11.359881 -24.563309 0.000000 0.000000 0.000000 4.543014 -16.284734 5.533129 -52.451395 -42.154975 10.049573 -166.805478 -68.811177 168.149581 0.000000 0.000000 0.000000 17.762151 7.038431 10.898796 -11.871472 40.572981 -8.393662 -105.270045 29.155662 -16.557524 0.000000 0.000000 0.000000
1.357404 0.379702 -0.350570 -8.953142 8.705071 68.868521 57.057958 3.016153 -26.471996 -6.538725 29.124799 111.226748 -0.176461 -7.946497 -9.952601 0.000000 0.000000 0.000000 -57.468188 -14.772409 -45.994845 -38.206284 31.819389 87.770285 0.796807 51.184322 -23.044216 0.000000 0.000000 0.000000 -3.902251 -1.187246 56.260209 8.325763 1.806183 -48.027862 -6.783123 15.471572 22.581064 36.547433 -14.072037 -21.257571 0.000000 0.000000 0.000000 1.125091 -16.451035 5.390216 -40.273836 -41.481234 6.655020 153.516190 -71.411416 -135.153857 0.000000 0.000000 0.000000 20.285054 7.377180 10.620866 -13.593950 39.635474 -9.044023 -95.575425 31.531923 -17.150285 0.000000 0.000000 0.000000
